<svg version="1.2" xmlns="http://www.w3.org/2000/svg" viewBox="0 0 1565 1008" width="1565" height="1008">
	<title>bxplogo-svg</title>
	<style>
		.s0 { fill: #0769af } 
		.s1 { fill: #28a6de } 
	</style>
	<g id="Group 3750">
		<g id="Group 2201">
			<path id="Path 1801" class="s0" d="m1005.4 770.8c0.1 0.8-0.1 1.6-0.4 2.4-0.4 0.7-1 1.3-1.6 1.7-0.7 0.5-1.5 0.7-2.3 0.7h-126q-1.4 0-2.8-0.4-1.4-0.3-2.7-1-1.3-0.6-2.4-1.6-1.1-0.9-1.9-2.1l-388-531.2c-0.5-0.6-0.8-1.4-0.8-2.2-0.1-0.8 0-1.6 0.4-2.4 0.4-0.7 0.9-1.3 1.6-1.7 0.7-0.5 1.5-0.7 2.3-0.7h125q1.4 0 2.8 0.4 1.4 0.3 2.7 1 1.3 0.6 2.4 1.6 1.1 0.9 1.9 2.1l389 531.2c0.5 0.6 0.8 1.4 0.8 2.2z"/>
			<path id="Path 1802" class="s1" d="m867.2 235.3q1.1-0.9 2.4-1.6 1.3-0.6 2.7-1 1.4-0.3 2.8-0.3h126c0.8 0 1.6 0.2 2.3 0.6 0.7 0.4 1.2 1.1 1.6 1.8 0.4 0.7 0.5 1.5 0.5 2.4-0.1 0.8-0.4 1.5-0.9 2.2l-389.1 531.2q-0.9 1.1-2 2.1-1.1 0.9-2.3 1.6-1.3 0.6-2.7 1-1.4 0.3-2.9 0.3h-124.8c-0.8 0-1.6-0.2-2.3-0.6-0.7-0.5-1.2-1.1-1.6-1.8-0.4-0.7-0.5-1.5-0.5-2.4 0.1-0.8 0.4-1.5 0.9-2.2l387.9-531.2q0.9-1.1 2-2.1z"/>
			<path id="Path 1803" fill-rule="evenodd" class="s0" d="m1485 311.9c50.9 51 79.5 120.1 79.5 192.1 0 72-28.6 141.1-79.5 192.1-50.9 50.9-120 79.5-192 79.5h-126.3v221.5c0 1.5-0.3 2.9-0.9 4.2-0.5 1.3-1.3 2.5-2.3 3.5-1 1-2.2 1.8-3.6 2.4-1.3 0.5-2.7 0.8-4.1 0.8h-87.3c-1.4 0-2.8-0.3-4.1-0.8-1.3-0.6-2.5-1.4-3.6-2.4-1-1-1.8-2.2-2.3-3.5-0.6-1.3-0.9-2.8-0.9-4.2v-753.8c0-1.4 0.3-2.9 0.9-4.2 0.5-1.3 1.3-2.5 2.3-3.5 1.1-1 2.3-1.8 3.6-2.4 1.3-0.5 2.7-0.8 4.1-0.8h224.5c72 0 141.1 28.6 192 79.5zm-77.1 307c30.5-30.4 47.6-71.8 47.6-114.9 0-43.1-17.1-84.5-47.6-114.9-30.5-30.5-71.8-47.6-114.9-47.6h-126.3v325h126.3c43.1 0 84.4-17.1 114.9-47.6z"/>
			<path id="Path 1804" fill-rule="evenodd" class="s0" d="m487.1 607.9c-13.6 32.9-33.6 62.9-58.9 88.1-25.2 25.2-55.1 45.2-88 58.9-32.9 13.6-68.2 20.7-103.9 20.7h-224.4c-1.4 0-2.9-0.3-4.2-0.8-1.3-0.6-2.5-1.4-3.5-2.4-1-1-1.8-2.2-2.4-3.5-0.5-1.3-0.8-2.8-0.8-4.2v-753.8c0-1.4 0.3-2.9 0.8-4.2 0.6-1.3 1.4-2.5 2.4-3.5 1-1 2.2-1.8 3.5-2.4 1.3-0.5 2.8-0.8 4.2-0.8h87.4c1.4 0 2.8 0.3 4.1 0.9 1.3 0.5 2.5 1.3 3.5 2.3 1 1 1.8 2.2 2.3 3.5 0.5 1.3 0.8 2.7 0.8 4.2v221.5h126.3c35.7 0 71 7.1 103.9 20.7 32.9 13.7 62.8 33.7 88 58.9 25.3 25.2 45.3 55.2 58.9 88.1 13.7 32.9 20.7 68.2 20.8 103.9-0.1 35.7-7.1 71-20.8 103.9zm-100.7-166.1c-8.2-19.7-20.1-37.6-35.2-52.7-15.1-15.1-33-27-52.7-35.2-19.7-8.2-40.8-12.4-62.2-12.4h-126.3v325h126.3c21.4 0 42.5-4.2 62.2-12.4 19.7-8.2 37.6-20.1 52.7-35.2 15.1-15.1 27-33 35.2-52.7 8.2-19.7 12.4-40.9 12.4-62.2 0-21.3-4.2-42.5-12.4-62.2z"/>
		</g>
	</g>
</svg>