<svg version="1.1" id="prefix__prefix__Layer_1" xmlns="http://www.w3.org/2000/svg" x="0" y="0" viewBox="0 0 258 159" xml:space="preserve"><style>.prefix__st1{enable-background:new}.prefix__st3{fill:#153d61}.prefix__st5{opacity:.42;fill:#fff;enable-background:new}</style><path d="M171.7 157.3h33.5c.4-.1.5-.3.5-.6l.9-12.7-.1-.1c-1 1.6-2.3 3.4-3.9 4.6l-1.1.7c-2.6 1.7-6.1 1-9.2 1.2-2-.1-4.1.4-5.9-.5-1.8-1.1-1.5-3.3-1.5-5.2v-10.1l.2-.4c3.3-.2 7.1 0 10.3-.1 1.4-.1 2.7.4 3.9 1 1.3.7 2 2.3 2.8 3.2v-15.8l-.1-.1c-1.2 2.4-3.3 4.6-6.2 4.4h-10.4c-.4 0-.6-.1-.6-.4v-9.7l-.1-4.1h12.1c3.1.5 5.6 3.2 7 5.9v-13.9c-.7.8-1.5 1.5-2.6 1.6h-30.1l-.2.4c2 1.1 5 2.4 4.8 5.1v33.9l.1 7c0 2.5-2.5 3.5-4.4 4.4l.3.3zm-6-46.3c0-2.1 2-3.4 3.6-4.3l-.2-.4h-14l-.2.4c.8.3 1.5.7 1.9 1 1.4.9 1.9 2.5 2 4v29l-.9-.9-20-19.1-17.3-16.5h-.4v3.9l.1 44.2c-.1 1.1-.2 2.1-1.2 2.6-2.4-2-4.1-4.6-5.9-7.1-3.3-5.1-7.2-10.2-11.3-15.1l-.2-.3.1-.1c.9-.7 2.1-1.8 3-2.7 3.6-3.9 4.3-10.1 2.5-15-1.7-4.7-6.6-7.4-11.3-8.3l-1.2-.1H73.6l-.4.4c1.6.8 3.7 2.3 4 4.2v43.1l-.1.6c-.5 1.5-2.5 1.9-4 2.5l.2.3h17.5l.1-.4c-.6-.1-1-.4-1.8-.8-3.1-2.1-2.6-5.6-2.7-9.2v-12.5h6.3l.3.4c5.7 6.1 9.8 13.2 14.9 19.7.9 1.2 2.8 2 4 2.8h18.6l.3-.3-1.3-.8c-1.8-1.1-2.4-2.9-2.4-4.7l-.1-28.2.4-.4 37 35.1 1.2.9c.2-.1.2-.2.2-.5l-.1-47.4zm-78.6 2.3c.2 0 .5 0 .7-.1 3.8-.4 8.3-.2 10.3 3.6 1.3 3.4 1.1 8.8-3 10.4-2.4 1.2-5.7.8-8.4.6h-.3v-14c0-.3.2-.5.5-.5h.2zm156.6 27.6l-.3-.4c-2-2.6-4-5.2-6.1-7.8l-.2-.3.1-.1c.9-.7 2.1-1.8 3-2.7 3.6-3.9 4.3-10.1 2.5-15-1.7-4.7-6.6-7.4-11.3-8.3l-1.2-.1H209l-.4.4c1.6.8 3.7 2.3 4 4.2v43.1l-.1.6c-.5 1.5-2.5 1.9-4 2.5l.2.3h17.5l.1-.4c-.6-.1-1-.4-1.8-.8-3.1-2.1-2.6-5.6-2.7-9.2v-12.5h6.3l.3.4c2.4 2.6 4.6 5.4 6.7 8.3l.4.5c3.1 4.2 5.8 9 9.8 12.9l.1.1c.4.4 1 .7 1.7.7h10.4l.5-.4c-6.7-3.2-10.1-10.2-14.3-16zm-13.1-13.7c-2.4 1.2-5.7.8-8.4.6h-.3v-14c0-.3.2-.5.5-.5h.1c.2 0 .5 0 .7-.1 3.8-.4 8.3-.2 10.3 3.6 1.4 3.4 1.1 8.7-2.9 10.4zM4.2 154c.4-.7.5-1.5.5-2.3V111c-.5-2.2-2.7-3.7-4.6-4.4l.2-.2H18l.2.2c-1.8 1.1-4.4 2.4-4.4 4.9v35.8c0 1.7 1.4 3.1 3.1 3.1l2.3.1c3.2.1 6.3.2 9.3-.4 3-.8 5.7-3.6 6.9-6.3l.2.3c-.3 4.3-.6 9-1 13.2H.6l-.2-.3h.2l.3-.1.3-.1c.9-.4 1.9-1 2.5-1.9l.5-.9zM63 126.6c2-.5 3.5-2.5 4.4-4.2l.2.3V138l-.2.2c-.8-1.2-1.6-2.5-3-3.2-1.1-.6-2.3-.8-3.4-.8H50v12c.1 1.2.1 3 1.5 3.7 1.4.8 3.3.5 5 .6 4.2-.1 8.7.6 11.8-2.1l.9-.8c1.1-1.1 1.8-2.3 2.6-3.4l.3.3-1 13H36.3l-.2-.3c2.1-.9 5.4-2 5.2-5.1v-39.7l-.2-1.2c-.3-2.4-3.1-3.5-4.9-4.6l.3-.3h30.4c.9-.1 1.9-1 2.6-1.6v13.1l-.3.4c-.5-.7-.9-1.5-1.5-2.1-1-1.3-2.3-2.4-3.8-2.9l-.2-.1c-.5-.2-1-.3-1.6-.3H50v13.9h12.7l.3-.1z" fill="#fff"/><g class="prefix__st1"><linearGradient id="prefix__SVGID_1_" gradientUnits="userSpaceOnUse" x1="166.454" y1="62.246" x2="111.407" y2="-13.519"><stop offset="0" stop-color="#a7d8f5"/><stop offset=".899" stop-color="#306da2"/><stop offset="1" stop-color="#3874a8"/></linearGradient><path fill="url(#prefix__SVGID_1_)" d="M130.7.3H92.5v20.8h38.2v41.8h34.8V.3z"/><path class="prefix__st3" d="M165.8 63.2h-35.3V21.4H92.2V0h73.6v63.2zm-34.8-.5h34.3V.5H92.7v20.4H131v41.8z"/></g><g class="prefix__st1"><linearGradient id="prefix__SVGID_2_" gradientUnits="userSpaceOnUse" x1="146.592" y1="101.042" x2="91.545" y2="25.277"><stop offset="0" stop-color="#a7d8f5"/><stop offset=".899" stop-color="#306da2"/><stop offset="1" stop-color="#3874a8"/></linearGradient><path fill="url(#prefix__SVGID_2_)" d="M127.3 24.6H92.5v62.7h73V66.4h-38.2z"/><path class="prefix__st3" d="M165.8 87.5H92.2V24.4h35.3v41.8h38.3v21.3zM92.7 87h72.6V66.6H127V24.9H92.7V87z"/></g><path class="prefix__st5" d="M94.2 50.4V26.3h28.3s-26 1-28.3 24.1zM163.7 81.6v3.8h-31.8c.1 0 11.3-.6 31.8-3.8zM163.9 37v24.1h-28.3c.1 0 26.1-1 28.3-24.1z"/><path d="M94.1 18.2V1.9h51.4c.1 0-38.6.4-51.4 16.3z" opacity=".5" fill="#fff"/></svg>