<svg id="Layer_2" data-name="Layer 2" xmlns="http://www.w3.org/2000/svg" viewBox="0 0 387 200.25">
  <defs>
    <style>
      .cls-1 {
        fill: #43d1b6;
      }

      .cls-2 {
        fill: #1fccc7;
      }

      .cls-3 {
        fill: #262626;
      }

      .cls-4 {
        fill: #003177;
      }

      .cls-5 {
        fill: #28ddba;
      }

      .cls-6 {
        fill: #0e4277;
      }

      .cls-7 {
        fill: #737884;
      }
    </style>
  </defs>
  <g id="Layer_1-2" data-name="Layer 1">
    <g>
      <g>
        <g>
          <path class="cls-6" d="M142.11.87c.25-.25.56-.38.92-.38h12.73c.36,0,.67.13.92.38.25.25.38.56.38.92v73.54c0,.36-.13.67-.38.92s-.56.38-.92.38h-12.29c-.73,0-1.23-.29-1.52-.87l-28.18-46.56c-.15-.22-.29-.31-.43-.27-.15.04-.22.2-.22.49l.22,45.91c0,.36-.13.67-.38.92-.25.25-.56.38-.92.38h-12.73c-.36,0-.67-.13-.92-.38-.25-.25-.38-.56-.38-.92V1.79c0-.36.13-.67.38-.92s.56-.38.92-.38h12.29c.72,0,1.23.29,1.52.87l28.07,46.34c.14.22.29.31.43.27.14-.04.22-.2.22-.49l-.11-45.69c0-.36.12-.67.38-.92Z"/>
          <path class="cls-6" d="M222.8,13.27c-.25.25-.56.38-.92.38h-35.68c-.36,0-.54.18-.54.54v16.86c0,.36.18.54.54.54h23.39c.36,0,.67.13.92.38.25.25.38.56.38.92v10.55c0,.36-.13.67-.38.92-.25.25-.56.38-.92.38h-23.39c-.36,0-.54.18-.54.54v17.62c0,.36.18.54.54.54h35.68c.36,0,.67.13.92.38.25.25.38.56.38.92v10.55c0,.36-.13.67-.38.92-.25.25-.56.38-.92.38h-50.26c-.36,0-.67-.13-.92-.38-.25-.25-.38-.56-.38-.92V1.79c0-.36.13-.67.38-.92.25-.25.56-.38.92-.38h50.26c.36,0,.67.13.92.38.25.25.38.56.38.92v10.55c0,.36-.13.67-.38.92Z"/>
          <path class="cls-6" d="M251.27,75.55L232.01,1.9l-.11-.44c0-.65.4-.98,1.2-.98h13.49c.72,0,1.2.36,1.41,1.09l10.33,44.28c.07.29.18.43.33.43s.25-.14.33-.43l10.01-44.17c.22-.8.69-1.2,1.41-1.2h13.16c.8,0,1.3.36,1.52,1.09l10.88,44.28c.07.22.18.34.33.38.14.04.25-.09.33-.38l10.01-44.17c.22-.8.69-1.2,1.41-1.2h12.84c1.01,0,1.41.47,1.2,1.41l-17.84,73.65c-.22.72-.73,1.09-1.52,1.09h-12.95c-.72,0-1.2-.36-1.41-1.09l-11.1-47.1c-.07-.29-.18-.43-.33-.43s-.25.15-.33.43l-10.33,46.99c-.15.8-.62,1.2-1.41,1.2h-12.07c-.8,0-1.31-.36-1.52-1.09Z"/>
          <path class="cls-6" d="M142.05,92.9c3.63,1.96,6.44,4.73,8.43,8.32,1.99,3.59,2.99,7.71,2.99,12.35s-1.03,8.59-3.1,12.07c-2.07,3.48-4.97,6.18-8.7,8.1-3.74,1.92-8.03,2.88-12.89,2.88h-15.45c-.36,0-.54.18-.54.54v27.74c0,.36-.13.67-.38.92-.25.25-.56.38-.92.38h-12.73c-.36,0-.67-.13-.92-.38-.25-.25-.38-.56-.38-.92v-73.65c0-.36.13-.67.38-.92.25-.25.56-.38.92-.38h30.68c4.79,0,8.99.98,12.62,2.94ZM135.2,121.46c2.03-1.92,3.05-4.44,3.05-7.56s-1.02-5.77-3.05-7.72c-2.03-1.96-4.72-2.94-8.05-2.94h-13.82c-.36,0-.54.18-.54.54v20.02c0,.36.18.54.54.54h13.82c3.33,0,6.02-.96,8.05-2.88Z"/>
          <path class="cls-6" d="M176.44,163.93c-4.32-2.32-7.67-5.56-10.06-9.74-2.39-4.17-3.59-8.97-3.59-14.41v-23.28c0-5.37,1.2-10.12,3.59-14.25,2.39-4.13,5.75-7.34,10.06-9.63,4.31-2.28,9.3-3.43,14.96-3.43s10.75,1.14,15.07,3.43c4.31,2.28,7.67,5.49,10.06,9.63,2.39,4.13,3.59,8.88,3.59,14.25v23.28c0,5.44-1.2,10.26-3.59,14.47-2.39,4.21-5.75,7.45-10.06,9.74-4.32,2.28-9.34,3.43-15.07,3.43s-10.64-1.16-14.96-3.48ZM201.08,150.45c2.46-2.54,3.7-5.91,3.7-10.12v-23.93c0-4.21-1.21-7.6-3.64-10.17-2.43-2.57-5.68-3.86-9.74-3.86s-7.2,1.29-9.63,3.86c-2.43,2.58-3.64,5.97-3.64,10.17v23.93c0,4.21,1.21,7.58,3.64,10.12,2.43,2.54,5.64,3.81,9.63,3.81s7.22-1.27,9.68-3.81Z"/>
          <path class="cls-6" d="M232.26,165.84c-.25-.25-.38-.56-.38-.92v-73.54c0-.36.13-.67.38-.92.25-.25.56-.38.92-.38h12.73c.36,0,.67.13.92.38.25.25.38.56.38.92v73.54c0,.36-.13.67-.38.92-.25.25-.56.38-.92.38h-12.73c-.36,0-.67-.13-.92-.38Z"/>
          <path class="cls-6" d="M304.51,90.45c.25-.25.56-.38.92-.38h12.73c.36,0,.67.13.92.38.25.25.38.56.38.92v73.54c0,.36-.13.67-.38.92s-.56.38-.92.38h-12.29c-.73,0-1.23-.29-1.52-.87l-28.18-46.56c-.15-.22-.29-.31-.43-.27-.15.04-.22.2-.22.49l.22,45.91c0,.36-.13.67-.38.92-.25.25-.56.38-.92.38h-12.73c-.36,0-.67-.13-.92-.38-.25-.25-.38-.56-.38-.92v-73.54c0-.36.13-.67.38-.92s.56-.38.92-.38h12.29c.72,0,1.23.29,1.52.87l28.07,46.34c.14.22.29.31.43.27.14-.04.22-.2.22-.49l-.11-45.69c0-.36.12-.67.38-.92Z"/>
          <path class="cls-6" d="M386.62,90.45c.25.25.38.56.38.92v10.66c0,.36-.13.67-.38.92s-.56.38-.92.38h-19.47c-.36,0-.54.18-.54.54v61.03c0,.36-.13.67-.38.92s-.56.38-.92.38h-12.73c-.36,0-.67-.13-.92-.38-.25-.25-.38-.56-.38-.92v-61.03c0-.36-.18-.54-.54-.54h-18.93c-.36,0-.67-.13-.92-.38-.25-.25-.38-.56-.38-.92v-10.66c0-.36.13-.67.38-.92.25-.25.56-.38.92-.38h54.83c.36,0,.67.13.92.38Z"/>
        </g>
        <g>
          <path class="cls-4" d="M142.11.87c.25-.25.56-.38.92-.38h12.73c.36,0,.67.13.92.38.25.25.38.56.38.92v73.54c0,.36-.13.67-.38.92s-.56.38-.92.38h-12.29c-.73,0-1.23-.29-1.52-.87l-28.18-46.56c-.15-.22-.29-.31-.43-.27-.15.04-.22.2-.22.49l.22,45.91c0,.36-.13.67-.38.92-.25.25-.56.38-.92.38h-12.73c-.36,0-.67-.13-.92-.38-.25-.25-.38-.56-.38-.92V1.79c0-.36.13-.67.38-.92s.56-.38.92-.38h12.29c.72,0,1.23.29,1.52.87l28.07,46.34c.14.22.29.31.43.27.14-.04.22-.2.22-.49l-.11-45.69c0-.36.12-.67.38-.92Z"/>
          <path class="cls-4" d="M222.8,13.27c-.25.25-.56.38-.92.38h-35.68c-.36,0-.54.18-.54.54v16.86c0,.36.18.54.54.54h23.39c.36,0,.67.13.92.38.25.25.38.56.38.92v10.55c0,.36-.13.67-.38.92-.25.25-.56.38-.92.38h-23.39c-.36,0-.54.18-.54.54v17.62c0,.36.18.54.54.54h35.68c.36,0,.67.13.92.38.25.25.38.56.38.92v10.55c0,.36-.13.67-.38.92-.25.25-.56.38-.92.38h-50.26c-.36,0-.67-.13-.92-.38-.25-.25-.38-.56-.38-.92V1.79c0-.36.13-.67.38-.92.25-.25.56-.38.92-.38h50.26c.36,0,.67.13.92.38.25.25.38.56.38.92v10.55c0,.36-.13.67-.38.92Z"/>
          <path class="cls-4" d="M251.27,75.55L232.01,1.9l-.11-.44c0-.65.4-.98,1.2-.98h13.49c.72,0,1.2.36,1.41,1.09l10.33,44.28c.07.29.18.43.33.43s.25-.14.33-.43l10.01-44.17c.22-.8.69-1.2,1.41-1.2h13.16c.8,0,1.3.36,1.52,1.09l10.88,44.28c.07.22.18.34.33.38.14.04.25-.09.33-.38l10.01-44.17c.22-.8.69-1.2,1.41-1.2h12.84c1.01,0,1.41.47,1.2,1.41l-17.84,73.65c-.22.72-.73,1.09-1.52,1.09h-12.95c-.72,0-1.2-.36-1.41-1.09l-11.1-47.1c-.07-.29-.18-.43-.33-.43s-.25.15-.33.43l-10.33,46.99c-.15.8-.62,1.2-1.41,1.2h-12.07c-.8,0-1.31-.36-1.52-1.09Z"/>
          <path class="cls-4" d="M142.05,92.9c3.63,1.96,6.44,4.73,8.43,8.32,1.99,3.59,2.99,7.71,2.99,12.35s-1.03,8.59-3.1,12.07c-2.07,3.48-4.97,6.18-8.7,8.1-3.74,1.92-8.03,2.88-12.89,2.88h-15.45c-.36,0-.54.18-.54.54v27.74c0,.36-.13.67-.38.92-.25.25-.56.38-.92.38h-12.73c-.36,0-.67-.13-.92-.38-.25-.25-.38-.56-.38-.92v-73.65c0-.36.13-.67.38-.92.25-.25.56-.38.92-.38h30.68c4.79,0,8.99.98,12.62,2.94ZM135.2,121.46c2.03-1.92,3.05-4.44,3.05-7.56s-1.02-5.77-3.05-7.72c-2.03-1.96-4.72-2.94-8.05-2.94h-13.82c-.36,0-.54.18-.54.54v20.02c0,.36.18.54.54.54h13.82c3.33,0,6.02-.96,8.05-2.88Z"/>
          <path class="cls-4" d="M176.44,163.93c-4.32-2.32-7.67-5.56-10.06-9.74-2.39-4.17-3.59-8.97-3.59-14.41v-23.28c0-5.37,1.2-10.12,3.59-14.25,2.39-4.13,5.75-7.34,10.06-9.63,4.31-2.28,9.3-3.43,14.96-3.43s10.75,1.14,15.07,3.43c4.31,2.28,7.67,5.49,10.06,9.63,2.39,4.13,3.59,8.88,3.59,14.25v23.28c0,5.44-1.2,10.26-3.59,14.47-2.39,4.21-5.75,7.45-10.06,9.74-4.32,2.28-9.34,3.43-15.07,3.43s-10.64-1.16-14.96-3.48ZM201.08,150.45c2.46-2.54,3.7-5.91,3.7-10.12v-23.93c0-4.21-1.21-7.6-3.64-10.17-2.43-2.57-5.68-3.86-9.74-3.86s-7.2,1.29-9.63,3.86c-2.43,2.58-3.64,5.97-3.64,10.17v23.93c0,4.21,1.21,7.58,3.64,10.12,2.43,2.54,5.64,3.81,9.63,3.81s7.22-1.27,9.68-3.81Z"/>
          <path class="cls-4" d="M232.26,165.84c-.25-.25-.38-.56-.38-.92v-73.54c0-.36.13-.67.38-.92.25-.25.56-.38.92-.38h12.73c.36,0,.67.13.92.38.25.25.38.56.38.92v73.54c0,.36-.13.67-.38.92-.25.25-.56.38-.92.38h-12.73c-.36,0-.67-.13-.92-.38Z"/>
          <path class="cls-4" d="M304.51,90.45c.25-.25.56-.38.92-.38h12.73c.36,0,.67.13.92.38.25.25.38.56.38.92v73.54c0,.36-.13.67-.38.92s-.56.38-.92.38h-12.29c-.73,0-1.23-.29-1.52-.87l-28.18-46.56c-.15-.22-.29-.31-.43-.27-.15.04-.22.2-.22.49l.22,45.91c0,.36-.13.67-.38.92-.25.25-.56.38-.92.38h-12.73c-.36,0-.67-.13-.92-.38-.25-.25-.38-.56-.38-.92v-73.54c0-.36.13-.67.38-.92s.56-.38.92-.38h12.29c.72,0,1.23.29,1.52.87l28.07,46.34c.14.22.29.31.43.27.14-.04.22-.2.22-.49l-.11-45.69c0-.36.12-.67.38-.92Z"/>
          <path class="cls-4" d="M386.62,90.45c.25.25.38.56.38.92v10.66c0,.36-.13.67-.38.92s-.56.38-.92.38h-19.47c-.36,0-.54.18-.54.54v61.03c0,.36-.13.67-.38.92s-.56.38-.92.38h-12.73c-.36,0-.67-.13-.92-.38-.25-.25-.38-.56-.38-.92v-61.03c0-.36-.18-.54-.54-.54h-18.93c-.36,0-.67-.13-.92-.38-.25-.25-.38-.56-.38-.92v-10.66c0-.36.13-.67.38-.92.25-.25.56-.38.92-.38h54.83c.36,0,.67.13.92.38Z"/>
        </g>
      </g>
      <g>
        <g>
          <path class="cls-3" d="M109.3,190.26c.7-.54,1.24-1.19,1.61-1.95.38-.77.56-1.61.56-2.54,0-1.32-.28-2.43-.83-3.34-.55-.91-1.35-1.59-2.41-2.06-1.05-.46-2.34-.7-3.86-.7h-6.7v20.3h2.68v-8.23h4.75l4.4,8.23h2.86v-.17l-4.77-8.65c.62-.24,1.2-.52,1.69-.89ZM100.37,189.56v-7.68h4.02c1.03,0,1.87.16,2.52.48.65.32,1.13.77,1.44,1.36.31.59.46,1.27.46,2.05,0,.7-.16,1.33-.49,1.91-.33.58-.81,1.03-1.45,1.37s-1.44.51-2.4.51h-4.1Z"/>
          <polygon class="cls-3" points="118.04 190.59 126.8 190.59 126.8 188.4 118.04 188.4 118.04 181.88 128.08 181.88 128.08 179.67 118.04 179.67 117.5 179.67 115.36 179.67 115.36 199.97 117.5 199.97 118.04 199.97 128.22 199.97 128.22 197.78 118.04 197.78 118.04 190.59"/>
          <path class="cls-3" d="M139.96,179.67h-1.77l-7.71,20.3h2.74l1.92-5.31h8.47l1.93,5.31h2.75l-7.74-20.3h-.58ZM135.94,192.46l3.43-9.47,3.44,9.47h-6.87Z"/>
          <polygon class="cls-3" points="153.89 179.67 151.2 179.67 151.2 199.97 153.36 199.97 153.89 199.97 163.48 199.97 163.48 197.78 153.89 197.78 153.89 179.67"/>
          <polygon class="cls-3" points="176.28 190.59 185.04 190.59 185.04 188.4 176.28 188.4 176.28 181.88 186.32 181.88 186.32 179.67 176.28 179.67 175.74 179.67 173.6 179.67 173.6 199.97 175.74 199.97 176.28 199.97 186.46 199.97 186.46 197.78 176.28 197.78 176.28 190.59"/>
          <path class="cls-3" d="M201.63,191c-.54-.5-1.23-.95-2.06-1.35-.83-.4-1.83-.76-2.98-1.09-.83-.23-1.55-.47-2.15-.72-.6-.25-1.09-.52-1.47-.82-.38-.3-.67-.62-.85-.97-.18-.35-.27-.74-.27-1.17,0-.63.15-1.19.45-1.69.3-.49.76-.88,1.38-1.17.62-.29,1.41-.43,2.36-.43,1.01,0,1.84.17,2.5.51.66.34,1.15.8,1.47,1.39.32.59.49,1.27.49,2.03h2.67c0-1.06-.28-2.06-.83-2.99-.56-.94-1.36-1.69-2.43-2.27-1.06-.58-2.35-.87-3.87-.87-1.04,0-1.98.14-2.82.42-.84.28-1.57.67-2.18,1.17-.61.5-1.07,1.08-1.4,1.75-.32.67-.49,1.4-.49,2.19s.15,1.49.46,2.1c.31.61.75,1.16,1.32,1.63.57.47,1.26.9,2.07,1.26.81.37,1.71.7,2.71,1,.96.28,1.74.55,2.37.82.63.27,1.12.55,1.47.85.36.3.61.63.75,1,.14.37.22.79.22,1.26,0,.66-.17,1.23-.51,1.72-.34.48-.83.85-1.48,1.12-.65.26-1.44.39-2.38.39-.65,0-1.27-.08-1.87-.23-.6-.15-1.13-.39-1.6-.72-.47-.33-.84-.74-1.11-1.23-.27-.5-.4-1.1-.4-1.79h-2.67c0,1.01.22,1.9.66,2.67.44.77,1.03,1.41,1.77,1.93.74.52,1.56.91,2.46,1.17.9.26,1.82.39,2.76.39,1.07,0,2.03-.13,2.9-.38.87-.26,1.61-.62,2.23-1.1.62-.47,1.1-1.05,1.43-1.71.33-.67.5-1.42.5-2.24s-.13-1.5-.4-2.13c-.26-.63-.67-1.19-1.21-1.69Z"/>
          <polygon class="cls-3" points="220.78 181.88 220.78 179.67 214.28 179.67 211.64 179.67 205.14 179.67 205.14 181.88 211.64 181.88 211.64 199.97 214.28 199.97 214.28 181.88 220.78 181.88"/>
          <path class="cls-3" d="M229.06,179.67h-1.77l-7.71,20.3h2.74l1.92-5.31h8.47l1.93,5.31h2.75l-7.74-20.3h-.58ZM225.04,192.46l3.43-9.47,3.44,9.47h-6.87Z"/>
          <polygon class="cls-3" points="242.67 179.67 236.18 179.67 236.18 181.88 242.67 181.88 242.67 199.97 245.32 199.97 245.32 181.88 251.82 181.88 251.82 179.67 245.32 179.67 242.67 179.67"/>
          <polygon class="cls-3" points="257.56 190.59 266.32 190.59 266.32 188.4 257.56 188.4 257.56 181.88 267.6 181.88 267.6 179.67 257.56 179.67 257.02 179.67 254.88 179.67 254.88 199.97 257.02 199.97 257.56 199.97 267.74 199.97 267.74 197.78 257.56 197.78 257.56 190.59"/>
          <path class="cls-3" d="M280.46,185.85c.23-.88.58-1.64,1.03-2.27.46-.63,1.03-1.12,1.71-1.46.68-.34,1.47-.52,2.37-.52,1.05,0,1.9.19,2.54.56.65.37,1.15.9,1.5,1.58.35.68.59,1.5.72,2.45h2.67c-.14-1.34-.5-2.52-1.09-3.53-.59-1.02-1.41-1.82-2.47-2.39-1.06-.58-2.35-.86-3.88-.86-1.25,0-2.38.22-3.38.67-1,.45-1.86,1.08-2.56,1.91-.71.83-1.25,1.82-1.63,2.98-.37,1.16-.56,2.45-.56,3.87v2.02c0,1.42.19,2.71.56,3.87.38,1.16.91,2.15,1.61,2.97.69.82,1.53,1.46,2.5,1.9.97.45,2.05.67,3.23.67,1.62,0,2.97-.29,4.06-.88,1.09-.59,1.92-1.39,2.52-2.41.59-1.01.96-2.16,1.1-3.44h-2.67c-.15.95-.4,1.76-.74,2.44-.35.68-.86,1.2-1.54,1.56-.68.36-1.58.54-2.72.54-.9,0-1.68-.19-2.34-.56-.66-.38-1.2-.89-1.63-1.55-.43-.66-.74-1.43-.95-2.3-.21-.87-.31-1.81-.31-2.8v-2.05c0-1.08.12-2.06.35-2.94Z"/>
          <path class="cls-3" d="M303.95,179.67h-1.77l-7.71,20.3h2.74l1.92-5.31h8.47l1.93,5.31h2.75l-7.74-20.3h-.58ZM299.93,192.46l3.43-9.47,3.44,9.47h-6.87Z"/>
          <path class="cls-3" d="M326.53,180.47c-1.06-.53-2.35-.8-3.88-.8h-7.46v20.3h2.68v-7.96h4.78c1.53,0,2.82-.24,3.88-.72,1.06-.48,1.86-1.18,2.41-2.1.55-.92.82-2.03.82-3.33,0-1.2-.27-2.27-.82-3.2-.55-.94-1.35-1.67-2.41-2.2ZM326.63,187.93c-.3.59-.78,1.06-1.43,1.39-.65.34-1.5.5-2.54.5h-4.78v-7.95h4.78c1.05,0,1.9.19,2.54.56.65.38,1.12.87,1.43,1.49.3.61.45,1.27.45,1.96,0,.76-.15,1.44-.45,2.04Z"/>
          <rect class="cls-3" x="333.11" y="179.67" width="2.68" height="20.3"/>
          <polygon class="cls-3" points="354.59 181.88 354.59 179.67 348.09 179.67 345.44 179.67 338.95 179.67 338.95 181.88 345.44 181.88 345.44 199.97 348.09 199.97 348.09 181.88 354.59 181.88"/>
          <path class="cls-3" d="M362.87,179.67h-1.77l-7.71,20.3h2.74l1.92-5.31h8.47l1.93,5.31h2.75l-7.74-20.3h-.58ZM358.85,192.46l3.43-9.47,3.44,9.47h-6.87Z"/>
          <polygon class="cls-3" points="376.79 197.78 376.79 179.67 374.11 179.67 374.11 199.97 376.27 199.97 376.79 199.97 386.39 199.97 386.39 197.78 376.79 197.78"/>
        </g>
        <g>
          <path class="cls-7" d="M109.3,190.26c.7-.54,1.24-1.19,1.61-1.95.38-.77.56-1.61.56-2.54,0-1.32-.28-2.43-.83-3.34-.55-.91-1.35-1.59-2.41-2.06-1.05-.46-2.34-.7-3.86-.7h-6.7v20.3h2.68v-8.23h4.75l4.4,8.23h2.86v-.17l-4.77-8.65c.62-.24,1.2-.52,1.69-.89ZM100.37,189.56v-7.68h4.02c1.03,0,1.87.16,2.52.48.65.32,1.13.77,1.44,1.36.31.59.46,1.27.46,2.05,0,.7-.16,1.33-.49,1.91-.33.58-.81,1.03-1.45,1.37s-1.44.51-2.4.51h-4.1Z"/>
          <polygon class="cls-7" points="118.04 190.59 126.8 190.59 126.8 188.4 118.04 188.4 118.04 181.88 128.08 181.88 128.08 179.67 118.04 179.67 117.5 179.67 115.36 179.67 115.36 199.97 117.5 199.97 118.04 199.97 128.22 199.97 128.22 197.78 118.04 197.78 118.04 190.59"/>
          <path class="cls-7" d="M139.96,179.67h-1.77l-7.71,20.3h2.74l1.92-5.31h8.47l1.93,5.31h2.75l-7.74-20.3h-.58ZM135.94,192.46l3.43-9.47,3.44,9.47h-6.87Z"/>
          <polygon class="cls-7" points="153.89 179.67 151.2 179.67 151.2 199.97 153.36 199.97 153.89 199.97 163.48 199.97 163.48 197.78 153.89 197.78 153.89 179.67"/>
          <polygon class="cls-7" points="176.28 190.59 185.04 190.59 185.04 188.4 176.28 188.4 176.28 181.88 186.32 181.88 186.32 179.67 176.28 179.67 175.74 179.67 173.6 179.67 173.6 199.97 175.74 199.97 176.28 199.97 186.46 199.97 186.46 197.78 176.28 197.78 176.28 190.59"/>
          <path class="cls-7" d="M201.63,191c-.54-.5-1.23-.95-2.06-1.35-.83-.4-1.83-.76-2.98-1.09-.83-.23-1.55-.47-2.15-.72-.6-.25-1.09-.52-1.47-.82-.38-.3-.67-.62-.85-.97-.18-.35-.27-.74-.27-1.17,0-.63.15-1.19.45-1.69.3-.49.76-.88,1.38-1.17.62-.29,1.41-.43,2.36-.43,1.01,0,1.84.17,2.5.51.66.34,1.15.8,1.47,1.39.32.59.49,1.27.49,2.03h2.67c0-1.06-.28-2.06-.83-2.99-.56-.94-1.36-1.69-2.43-2.27-1.06-.58-2.35-.87-3.87-.87-1.04,0-1.98.14-2.82.42-.84.28-1.57.67-2.18,1.17-.61.5-1.07,1.08-1.4,1.75-.32.67-.49,1.4-.49,2.19s.15,1.49.46,2.1c.31.61.75,1.16,1.32,1.63.57.47,1.26.9,2.07,1.26.81.37,1.71.7,2.71,1,.96.28,1.74.55,2.37.82.63.27,1.12.55,1.47.85.36.3.61.63.75,1,.14.37.22.79.22,1.26,0,.66-.17,1.23-.51,1.72-.34.48-.83.85-1.48,1.12-.65.26-1.44.39-2.38.39-.65,0-1.27-.08-1.87-.23-.6-.15-1.13-.39-1.6-.72-.47-.33-.84-.74-1.11-1.23-.27-.5-.4-1.1-.4-1.79h-2.67c0,1.01.22,1.9.66,2.67.44.77,1.03,1.41,1.77,1.93.74.52,1.56.91,2.46,1.17.9.26,1.82.39,2.76.39,1.07,0,2.03-.13,2.9-.38.87-.26,1.61-.62,2.23-1.1.62-.47,1.1-1.05,1.43-1.71.33-.67.5-1.42.5-2.24s-.13-1.5-.4-2.13c-.26-.63-.67-1.19-1.21-1.69Z"/>
          <polygon class="cls-7" points="220.78 181.88 220.78 179.67 214.28 179.67 211.64 179.67 205.14 179.67 205.14 181.88 211.64 181.88 211.64 199.97 214.28 199.97 214.28 181.88 220.78 181.88"/>
          <path class="cls-7" d="M229.06,179.67h-1.77l-7.71,20.3h2.74l1.92-5.31h8.47l1.93,5.31h2.75l-7.74-20.3h-.58ZM225.04,192.46l3.43-9.47,3.44,9.47h-6.87Z"/>
          <polygon class="cls-7" points="242.67 179.67 236.18 179.67 236.18 181.88 242.67 181.88 242.67 199.97 245.32 199.97 245.32 181.88 251.82 181.88 251.82 179.67 245.32 179.67 242.67 179.67"/>
          <polygon class="cls-7" points="257.56 190.59 266.32 190.59 266.32 188.4 257.56 188.4 257.56 181.88 267.6 181.88 267.6 179.67 257.56 179.67 257.02 179.67 254.88 179.67 254.88 199.97 257.02 199.97 257.56 199.97 267.74 199.97 267.74 197.78 257.56 197.78 257.56 190.59"/>
          <path class="cls-7" d="M280.46,185.85c.23-.88.58-1.64,1.03-2.27.46-.63,1.03-1.12,1.71-1.46.68-.34,1.47-.52,2.37-.52,1.05,0,1.9.19,2.54.56.65.37,1.15.9,1.5,1.58.35.68.59,1.5.72,2.45h2.67c-.14-1.34-.5-2.52-1.09-3.53-.59-1.02-1.41-1.82-2.47-2.39-1.06-.58-2.35-.86-3.88-.86-1.25,0-2.38.22-3.38.67-1,.45-1.86,1.08-2.56,1.91-.71.83-1.25,1.82-1.63,2.98-.37,1.16-.56,2.45-.56,3.87v2.02c0,1.42.19,2.71.56,3.87.38,1.16.91,2.15,1.61,2.97.69.82,1.53,1.46,2.5,1.9.97.45,2.05.67,3.23.67,1.62,0,2.97-.29,4.06-.88,1.09-.59,1.92-1.39,2.52-2.41.59-1.01.96-2.16,1.1-3.44h-2.67c-.15.95-.4,1.76-.74,2.44-.35.68-.86,1.2-1.54,1.56-.68.36-1.58.54-2.72.54-.9,0-1.68-.19-2.34-.56-.66-.38-1.2-.89-1.63-1.55-.43-.66-.74-1.43-.95-2.3-.21-.87-.31-1.81-.31-2.8v-2.05c0-1.08.12-2.06.35-2.94Z"/>
          <path class="cls-7" d="M303.95,179.67h-1.77l-7.71,20.3h2.74l1.92-5.31h8.47l1.93,5.31h2.75l-7.74-20.3h-.58ZM299.93,192.46l3.43-9.47,3.44,9.47h-6.87Z"/>
          <path class="cls-7" d="M326.53,180.47c-1.06-.53-2.35-.8-3.88-.8h-7.46v20.3h2.68v-7.96h4.78c1.53,0,2.82-.24,3.88-.72,1.06-.48,1.86-1.18,2.41-2.1.55-.92.82-2.03.82-3.33,0-1.2-.27-2.27-.82-3.2-.55-.94-1.35-1.67-2.41-2.2ZM326.63,187.93c-.3.59-.78,1.06-1.43,1.39-.65.34-1.5.5-2.54.5h-4.78v-7.95h4.78c1.05,0,1.9.19,2.54.56.65.38,1.12.87,1.43,1.49.3.61.45,1.27.45,1.96,0,.76-.15,1.44-.45,2.04Z"/>
          <rect class="cls-7" x="333.11" y="179.67" width="2.68" height="20.3"/>
          <polygon class="cls-7" points="354.59 181.88 354.59 179.67 348.09 179.67 345.44 179.67 338.95 179.67 338.95 181.88 345.44 181.88 345.44 199.97 348.09 199.97 348.09 181.88 354.59 181.88"/>
          <path class="cls-7" d="M362.87,179.67h-1.77l-7.71,20.3h2.74l1.92-5.31h8.47l1.93,5.31h2.75l-7.74-20.3h-.58ZM358.85,192.46l3.43-9.47,3.44,9.47h-6.87Z"/>
          <polygon class="cls-7" points="376.79 197.78 376.79 179.67 374.11 179.67 374.11 199.97 376.27 199.97 376.79 199.97 386.39 199.97 386.39 197.78 376.79 197.78"/>
        </g>
      </g>
      <g>
        <g>
          <path class="cls-1" d="M77.25,39.68l-5.57-28c-.26-1.32-1.54-2.18-2.86-1.91l-.12.02c-1.32.26-2.18,1.54-1.91,2.86l5.57,27.99c.26,1.32,1.54,2.17,2.85,1.91.04,0,.08-.02.12-.02,1.32-.26,2.18-1.54,1.92-2.86Z"/>
          <path class="cls-1" d="M23.05,61.1l18.66,7.73c1.24.52,2.67-.08,3.18-1.32.02-.04.03-.08.05-.11.51-1.24-.08-2.66-1.32-3.18l-18.66-7.73c-1.24-.51-2.67.08-3.18,1.32l-.05.11c-.51,1.24.08,2.67,1.32,3.18Z"/>
          <path class="cls-1" d="M83.4,41.75s.02,0,.03,0c1.36,0,2.46-1.08,2.46-2.43V2.44c0-1.34-1.09-2.44-2.44-2.44h-.12c-1.34,0-2.44,1.09-2.44,2.44v36.88c0,1.36,1.11,2.44,2.46,2.43.01,0,.02,0,.03,0Z"/>
          <path class="cls-1" d="M24.96,110.3l18.66-7.73c1.24-.51,1.83-1.94,1.32-3.18-.02-.04-.03-.08-.05-.11-.51-1.25-1.94-1.84-3.18-1.32l-18.66,7.73c-1.24.51-1.83,1.94-1.32,3.18l.05.11c.51,1.24,1.94,1.83,3.18,1.32Z"/>
          <path class="cls-2" d="M54,50.47l-26.08-26.08c-.95-.95-2.49-.95-3.44,0l-.09.09c-.95.95-.95,2.49,0,3.44l26.08,26.08c.96.96,2.51.94,3.47-.03.01-.01.02-.02.04-.04.96-.96.99-2.51.03-3.47Z"/>
          <path class="cls-1" d="M48.14,56.83l-23.73-15.86c-1.12-.75-2.63-.45-3.38.67l-.07.1c-.75,1.12-.45,2.63.67,3.38l23.73,15.86c1.13.76,2.64.43,3.4-.7,0-.01.02-.03.03-.04.76-1.13.48-2.65-.65-3.41Z"/>
          <path class="cls-1" d="M60.98,45.36l-15.86-23.73c-.75-1.12-2.26-1.42-3.38-.67l-.1.07c-1.12.75-1.42,2.26-.67,3.38l15.86,23.73c.75,1.13,2.28,1.41,3.41.65.01,0,.03-.02.04-.03,1.13-.75,1.46-2.27.7-3.4Z"/>
          <path class="cls-1" d="M68.83,41.72l-7.73-18.66c-.51-1.24-1.94-1.83-3.18-1.32l-.11.05c-1.24.51-1.83,1.94-1.32,3.18l7.73,18.66c.51,1.24,1.94,1.83,3.18,1.32.04-.02.08-.03.11-.05,1.25-.51,1.84-1.94,1.32-3.18Z"/>
          <path class="cls-1" d="M40.65,72.35l-27.99-5.57c-1.32-.26-2.6.59-2.86,1.91l-.02.12c-.26,1.32.59,2.6,1.91,2.86l27.99,5.57c1.32.26,2.61-.6,2.86-1.92,0-.04.02-.08.02-.12.26-1.32-.6-2.59-1.91-2.85Z"/>
          <path class="cls-1" d="M83.4,125.04s-.02,0-.03,0c-1.36,0-2.46,1.08-2.46,2.43v36.88c0,1.34,1.09,2.44,2.44,2.44h.12c1.34,0,2.44-1.09,2.44-2.44v-36.88c0-1.36-1.11-2.44-2.46-2.43-.01,0-.02,0-.03,0Z"/>
          <path class="cls-1" d="M39.68,89.55l-27.99,5.57c-1.32.26-2.18,1.54-1.91,2.86l.02.12c.26,1.32,1.54,2.18,2.86,1.91l27.99-5.57c1.32-.26,2.17-1.54,1.91-2.85,0-.04-.02-.08-.02-.12-.26-1.32-1.54-2.18-2.86-1.92Z"/>
          <path class="cls-1" d="M45.36,105.81l-23.73,15.86c-1.12.75-1.42,2.26-.67,3.38l.07.1c.75,1.12,2.26,1.42,3.38.67l23.73-15.86c1.13-.76,1.41-2.28.65-3.41,0-.01-.02-.03-.03-.04-.75-1.13-2.27-1.46-3.4-.7Z"/>
          <path class="cls-1" d="M41.75,83.4s0-.02,0-.03c0-1.36-1.08-2.46-2.43-2.46H2.44c-1.34,0-2.44,1.09-2.44,2.44v.12c0,1.34,1.09,2.44,2.44,2.44h36.88c1.36,0,2.44-1.11,2.43-2.46,0-.01,0-.02,0-.03Z"/>
          <path class="cls-1" d="M56.83,118.66l-15.86,23.73c-.75,1.12-.45,2.63.67,3.38l.1.07c1.12.75,2.63.45,3.38-.67l15.86-23.73c.76-1.13.43-2.64-.7-3.4-.01,0-.03-.02-.04-.03-1.13-.76-2.65-.48-3.41.65Z"/>
          <path class="cls-1" d="M50.47,112.79l-26.08,26.08c-.95.95-.95,2.49,0,3.44l.09.09c.95.95,2.49.95,3.44,0l26.08-26.08c.96-.96.94-2.51-.03-3.47-.01-.01-.02-.02-.04-.04-.96-.96-2.51-.99-3.47-.03Z"/>
          <path class="cls-1" d="M64.22,123.17l-7.73,18.66c-.51,1.24.08,2.67,1.32,3.18l.11.05c1.24.51,2.67-.08,3.18-1.32l7.73-18.66c.52-1.24-.08-2.67-1.32-3.18-.04-.02-.08-.03-.11-.05-1.24-.51-2.66.08-3.18,1.32Z"/>
          <path class="cls-1" d="M72.35,126.14l-5.57,27.99c-.26,1.32.59,2.6,1.91,2.86l.12.02c1.32.26,2.6-.59,2.86-1.91l5.57-27.99c.26-1.32-.6-2.61-1.92-2.86-.04,0-.08-.02-.12-.02-1.32-.26-2.59.6-2.85,1.91Z"/>
        </g>
        <g>
          <path class="cls-5" d="M77.25,39.68l-5.57-28c-.26-1.32-1.54-2.18-2.86-1.91l-.12.02c-1.32.26-2.18,1.54-1.91,2.86l5.57,27.99c.26,1.32,1.54,2.17,2.85,1.91.04,0,.08-.02.12-.02,1.32-.26,2.18-1.54,1.92-2.86Z"/>
          <path class="cls-5" d="M23.05,61.1l18.66,7.73c1.24.52,2.67-.08,3.18-1.32.02-.04.03-.08.05-.11.51-1.24-.08-2.66-1.32-3.18l-18.66-7.73c-1.24-.51-2.67.08-3.18,1.32l-.05.11c-.51,1.24.08,2.67,1.32,3.18Z"/>
          <path class="cls-5" d="M83.4,41.75s.02,0,.03,0c1.36,0,2.46-1.08,2.46-2.43V2.44c0-1.34-1.09-2.44-2.44-2.44h-.12c-1.34,0-2.44,1.09-2.44,2.44v36.88c0,1.36,1.11,2.44,2.46,2.43.01,0,.02,0,.03,0Z"/>
          <path class="cls-5" d="M24.96,110.3l18.66-7.73c1.24-.51,1.83-1.94,1.32-3.18-.02-.04-.03-.08-.05-.11-.51-1.25-1.94-1.84-3.18-1.32l-18.66,7.73c-1.24.51-1.83,1.94-1.32,3.18l.05.11c.51,1.24,1.94,1.83,3.18,1.32Z"/>
          <path class="cls-5" d="M54,50.47l-26.08-26.08c-.95-.95-2.49-.95-3.44,0l-.09.09c-.95.95-.95,2.49,0,3.44l26.08,26.08c.96.96,2.51.94,3.47-.03.01-.01.02-.02.04-.04.96-.96.99-2.51.03-3.47Z"/>
          <path class="cls-5" d="M48.14,56.83l-23.73-15.86c-1.12-.75-2.63-.45-3.38.67l-.07.1c-.75,1.12-.45,2.63.67,3.38l23.73,15.86c1.13.76,2.64.43,3.4-.7,0-.01.02-.03.03-.04.76-1.13.48-2.65-.65-3.41Z"/>
          <path class="cls-5" d="M60.98,45.36l-15.86-23.73c-.75-1.12-2.26-1.42-3.38-.67l-.1.07c-1.12.75-1.42,2.26-.67,3.38l15.86,23.73c.75,1.13,2.28,1.41,3.41.65.01,0,.03-.02.04-.03,1.13-.75,1.46-2.27.7-3.4Z"/>
          <path class="cls-5" d="M68.83,41.72l-7.73-18.66c-.51-1.24-1.94-1.83-3.18-1.32l-.11.05c-1.24.51-1.83,1.94-1.32,3.18l7.73,18.66c.51,1.24,1.94,1.83,3.18,1.32.04-.02.08-.03.11-.05,1.25-.51,1.84-1.94,1.32-3.18Z"/>
          <path class="cls-5" d="M40.65,72.35l-27.99-5.57c-1.32-.26-2.6.59-2.86,1.91l-.02.12c-.26,1.32.59,2.6,1.91,2.86l27.99,5.57c1.32.26,2.61-.6,2.86-1.92,0-.04.02-.08.02-.12.26-1.32-.6-2.59-1.91-2.85Z"/>
          <path class="cls-5" d="M83.4,125.04s-.02,0-.03,0c-1.36,0-2.46,1.08-2.46,2.43v36.88c0,1.34,1.09,2.44,2.44,2.44h.12c1.34,0,2.44-1.09,2.44-2.44v-36.88c0-1.36-1.11-2.44-2.46-2.43-.01,0-.02,0-.03,0Z"/>
          <path class="cls-5" d="M39.68,89.55l-27.99,5.57c-1.32.26-2.18,1.54-1.91,2.86l.02.12c.26,1.32,1.54,2.18,2.86,1.91l27.99-5.57c1.32-.26,2.17-1.54,1.91-2.85,0-.04-.02-.08-.02-.12-.26-1.32-1.54-2.18-2.86-1.92Z"/>
          <path class="cls-5" d="M45.36,105.81l-23.73,15.86c-1.12.75-1.42,2.26-.67,3.38l.07.1c.75,1.12,2.26,1.42,3.38.67l23.73-15.86c1.13-.76,1.41-2.28.65-3.41,0-.01-.02-.03-.03-.04-.75-1.13-2.27-1.46-3.4-.7Z"/>
          <path class="cls-5" d="M41.75,83.4s0-.02,0-.03c0-1.36-1.08-2.46-2.43-2.46H2.44c-1.34,0-2.44,1.09-2.44,2.44v.12c0,1.34,1.09,2.44,2.44,2.44h36.88c1.36,0,2.44-1.11,2.43-2.46,0-.01,0-.02,0-.03Z"/>
          <path class="cls-5" d="M56.83,118.66l-15.86,23.73c-.75,1.12-.45,2.63.67,3.38l.1.07c1.12.75,2.63.45,3.38-.67l15.86-23.73c.76-1.13.43-2.64-.7-3.4-.01,0-.03-.02-.04-.03-1.13-.76-2.65-.48-3.41.65Z"/>
          <path class="cls-5" d="M50.47,112.79l-26.08,26.08c-.95.95-.95,2.49,0,3.44l.09.09c.95.95,2.49.95,3.44,0l26.08-26.08c.96-.96.94-2.51-.03-3.47-.01-.01-.02-.02-.04-.04-.96-.96-2.51-.99-3.47-.03Z"/>
          <path class="cls-5" d="M64.22,123.17l-7.73,18.66c-.51,1.24.08,2.67,1.32,3.18l.11.05c1.24.51,2.67-.08,3.18-1.32l7.73-18.66c.52-1.24-.08-2.67-1.32-3.18-.04-.02-.08-.03-.11-.05-1.24-.51-2.66.08-3.18,1.32Z"/>
          <path class="cls-5" d="M72.35,126.14l-5.57,27.99c-.26,1.32.59,2.6,1.91,2.86l.12.02c1.32.26,2.6-.59,2.86-1.91l5.57-27.99c.26-1.32-.6-2.61-1.92-2.86-.04,0-.08-.02-.12-.02-1.32-.26-2.59.6-2.85,1.91Z"/>
        </g>
      </g>
    </g>
  </g>
</svg>
